Coordinates
version=1
nRows=29
nColumns=24
inDegrees=yes

Units are S.I. units (second, meters, Newtons, ...)
Angles are in degrees.

endheader
time	pelvis_tilt	pelvis_list	pelvis_rotation	pelvis_tx	pelvis_ty	pelvis_tz	hip_flexion_r	hip_adduction_r	hip_rotation_r	knee_angle_r	ankle_angle_r	subtalar_angle_r	mtp_angle_r	hip_flexion_l	hip_adduction_l	hip_rotation_l	knee_angle_l	ankle_angle_l	subtalar_angle_l	mtp_angle_l	lumbar_extension	lumbar_bending	lumbar_rotation
      6.34000000	      8.05295474	     -1.92091821	      4.86021272	      0.59023820	      0.94754797	     -0.18565155	     -4.38427765	      7.68966598	     -5.16671830	     -7.46614850	     11.58659133	     -0.96121705	      0.00000000	     10.79387603	     -0.80155889	     -1.22578061	    -50.16024961	      7.67174242	     -6.21585112	      0.00000000	    -24.53940978	      2.21223644	     -1.06928012
      6.35000000	      7.93321938	     -1.80061198	      4.72366582	      0.59920582	      0.94761237	     -0.18557213	     -4.97990096	      7.59831115	     -5.08453736	     -7.26959683	     12.05450878	     -0.81408419	      0.00000000	     11.51658547	     -0.44889706	     -0.99782056	    -48.11230578	      8.22287047	     -5.00747108	      0.00000000	    -24.57159568	      2.01386270	     -0.86808762
      6.36000000	      7.81596508	     -1.73495491	      4.57455325	      0.60815982	      0.94750702	     -0.18555895	     -5.55089920	      7.55763714	     -4.95975532	     -7.11975369	     12.46179461	     -0.67121529	      0.00000000	     12.14888373	     -0.15725854	     -0.76214457	    -45.85047686	      8.69741772	     -3.94699103	      0.00000000	    -24.61742743	      1.88969728	     -0.63668217
      6.37000000	      7.70136116	     -1.71859980	      4.40461470	      0.61716681	      0.94723417	     -0.18554897	     -6.12176840	      7.56790208	     -4.79527457	     -6.97245518	     12.87860552	     -0.57727587	      0.00000000	     12.68177630	      0.05433233	     -0.57783936	    -43.37490287	      9.01556857	     -3.12052020	      0.00000000	    -24.64597662	      1.81030432	     -0.38628273
      6.38000000	      7.56886804	     -1.74021338	      4.22242267	      0.62621725	      0.94677396	     -0.18559824	     -6.66395456	      7.60961466	     -4.60692427	     -6.84476640	     13.29268641	     -0.52595354	      0.00000000	     13.13667591	      0.21296488	     -0.41800040	    -40.69781815	      9.19989879	     -2.54797697	      0.00000000	    -24.64100679	      1.78443007	     -0.13613147
      6.39000000	      7.46220551	     -1.82222043	      4.02472046	      0.63530680	      0.94618974	     -0.18567883	     -7.22582069	      7.71056174	     -4.38953792	     -6.73400813	     13.70494624	     -0.46967781	      0.00000000	     13.46763842	      0.28390440	     -0.28179320	    -37.83874197	      9.27864648	     -2.11794696	      0.00000000	    -24.65836847	      1.83268721	      0.14944298
      6.40000000	      7.32912916	     -1.93427523	      3.81192781	      0.64444079	      0.94542818	     -0.18578066	     -7.74453079	      7.83206925	     -4.15882966	     -6.65890832	     14.13503480	     -0.42939894	      0.00000000	     13.72601690	      0.30619064	     -0.15771243	    -34.80403363	      9.26102318	     -1.84085503	      0.00000000	    -24.63164346	      1.91223727	      0.42185812
      6.41000000	      7.28291244	     -2.09835154	      3.60237891	      0.65365684	      0.94465206	     -0.18594013	     -8.39343068	      8.00690672	     -3.93845391	     -6.51892495	     14.54776029	     -0.36333165	      0.00000000	     13.78747188	      0.25254559	     -0.02284352	    -31.60320813	      9.05279881	     -1.79627858	      0.00000000	    -24.69072052	      2.06994096	      0.72320640
      6.42000000	      7.14720891	     -2.29004958	      3.35988002	      0.66292510	      0.94362464	     -0.18606624	     -8.93160818	      8.19348462	     -3.66880524	     -6.42131192	     15.02737378	     -0.31390624	      0.00000000	     13.86623459	      0.13704527	      0.03869958	    -28.29950984	      8.83297519	     -1.71868758	      0.00000000	    -24.62090255	      2.23748941	      1.01790740
      6.43000000	      7.10878056	     -2.52582611	      3.15525473	      0.67227327	      0.94260812	     -0.18628927	     -9.61764507	      8.42699104	     -3.45786580	     -6.24609677	     15.40119225	     -0.25485626	      0.00000000	     13.74575332	     -0.01768454	      0.23883102	    -24.87746241	      8.43506142	     -1.96323949	      0.00000000	    -24.65439493	      2.48191948	      1.29727029
      6.44000000	      7.02497696	     -2.79302508	      2.92058829	      0.68169110	      0.94141214	     -0.18646660	    -10.26224797	      8.67886313	     -3.19098052	     -6.07303142	     15.80716015	     -0.19573839	      0.00000000	     13.62334756	     -0.24871259	      0.31928124	    -21.44049499	      8.06212098	     -2.12863679	      0.00000000	    -24.61383372	      2.74520236	      1.59938911
      6.45000000	      6.95295905	     -3.08723626	      2.67881049	      0.69116150	      0.94012722	     -0.18664375	    -10.92116799	      8.94899263	     -2.89105049	     -5.91497632	     16.19022384	     -0.14132493	      0.00000000	     13.44690703	     -0.53084774	      0.33779117	    -18.02263902	      7.67253559	     -2.30771388	      0.00000000	    -24.58175983	      3.03031072	      1.88686141
      6.46000000	      6.87972174	     -3.41148123	      2.42617569	      0.70070730	      0.93874294	     -0.18680529	    -11.59233169	      9.23976538	     -2.56263046	     -5.74786237	     16.56057714	     -0.08080503	      0.00000000	     13.25865650	     -0.87261710	      0.18700856	    -14.69808108	      7.31205555	     -2.39195817	      0.00000000	    -24.53378218	      3.34066786	      2.18930107
      6.47000000	      6.80779643	     -3.75394531	      2.17596236	      0.71031142	      0.93728110	     -0.18698946	    -12.26318956	      9.53934966	     -2.22657294	     -5.59954979	     16.90250468	     -0.00994452	      0.00000000	     13.07789132	     -1.24523764	     -0.17534808	    -11.53334088	      7.00190001	     -2.32829510	      0.00000000	    -24.47838481	      3.67373367	      2.49098078
      6.48000000	      6.74696299	     -4.09115833	      1.91968076	      0.71998124	      0.93578659	     -0.18720619	    -12.93773680	      9.81985266	     -1.89019759	     -5.48587390	     17.22135119	      0.07120730	      0.00000000	     12.89606674	     -1.60821091	     -0.76214075	     -8.56529421	      6.74637884	     -2.09845016	      0.00000000	    -24.43107741	      3.99506377	      2.78467047
      6.49000000	      6.72471789	     -4.38591640	      1.65595952	      0.72972152	      0.93433094	     -0.18746809	    -13.64100320	     10.04204253	     -1.54208596	     -5.41760180	     17.52052248	      0.14549309	      0.00000000	     12.69068306	     -1.91154368	     -1.60501729	     -5.83939642	      6.58815654	     -1.59990879	      0.00000000	    -24.42879889	      4.25957680	      3.06564169
      6.50000000	      6.69685952	     -4.67684223	      1.40719743	      0.73948560	      0.93288379	     -0.18781916	    -14.30620791	     10.25156582	     -1.19881340	     -5.41586683	     17.75674573	      0.15856652	      0.00000000	     12.58712654	     -2.18925077	     -2.95438779	     -3.50008679	      6.66986528	     -0.38743100	      0.00000000	    -24.42566993	      4.54132209	      3.31185457
      6.51000000	      6.69063478	     -4.90297076	      1.15682868	      0.74932849	      0.93149845	     -0.18826180	    -14.96647084	     10.37828508	     -0.89012925	     -5.48148093	     18.03982083	      0.23144680	      0.00000000	     12.46459920	     -2.35331689	     -4.18390032	     -1.43660885	      6.69592749	      0.61444273	      0.00000000	    -24.44093062	      4.74270816	      3.55455417
      6.52000000	      6.63089392	     -5.10147795	      0.88586187	      0.75920250	      0.93010666	     -0.18874757	    -15.50195888	     10.45961884	     -0.59180826	     -5.68185086	     18.25987316	      0.28772036	      0.00000000	     12.45513432	     -2.46760842	     -5.44662684	      0.24048718	      6.79023678	      1.69145364	      0.00000000	    -24.39752074	      4.90567235	      3.79484341
      6.53000000	      6.65257896	     -5.24537337	      0.65563280	      0.76916881	      0.92887161	     -0.18935560	    -16.09883788	     10.48440318	     -0.31616021	     -5.93790134	     18.49161570	      0.33276362	      0.00000000	     12.37374458	     -2.50873842	     -6.34843717	      1.56885141	      6.82951379	      2.34773874	      0.00000000	    -24.44169140	      5.01670707	      4.00120117
      6.54000000	      6.64989371	     -5.37749661	      0.41485246	      0.77916437	      0.92769443	     -0.18998526	    -16.59455949	     10.48714939	     -0.04337584	     -6.33972780	     18.65826861	      0.34789069	      0.00000000	     12.38104952	     -2.55217173	     -7.15248320	      2.45001148	      6.91960606	      2.91702149	      0.00000000	    -24.46906363	      5.11126790	      4.19390309
      6.55000000	      6.62532664	     -5.51939336	      0.18300495	      0.78922050	      0.92656148	     -0.19064800	    -16.99333355	     10.49520827	      0.19635111	     -6.88408718	     18.77007768	      0.41430410	      0.00000000	     12.44508832	     -2.63154177	     -7.50199450	      2.91287528	      6.95935768	      2.87328358	      0.00000000	    -24.46719075	      5.21452491	      4.40611778
      6.56000000	      6.68258814	     -5.58798800	     -0.05146523	      0.79945627	      0.92564238	     -0.19130157	    -17.45100906	     10.41997977	      0.46382230	     -7.50256373	     18.85635714	      0.48105783	      0.00000000	     12.43514031	     -2.66454804	     -7.82808077	      2.97968255	      7.04387224	      2.89698047	      0.00000000	    -24.53120423	      5.19965790	      4.60382928
      6.57000000	      6.75063682	     -5.66088430	     -0.26725986	      0.80978404	      0.92482013	     -0.19200405	    -17.84658848	     10.34350293	      0.66711044	     -8.26116562	     18.84002469	      0.54928618	      0.00000000	     12.46565388	     -2.72929597	     -7.99444703	      2.60547347	      7.17983528	      2.79604574	      0.00000000	    -24.60852195	      5.19793189	      4.78943690
      6.58000000	      6.84212751	     -5.71872445	     -0.49601837	      0.82029047	      0.92411258	     -0.19271621	    -18.20505183	     10.23595001	      0.86173870	     -9.15309845	     18.75283070	      0.65101830	      0.00000000	     12.45216433	     -2.80281012	     -8.01795149	      1.93256432	      7.28481283	      2.62184569	      0.00000000	    -24.68567683	      5.16950515	      4.97819291
      6.59000000	      6.95875693	     -5.77342212	     -0.74884172	      0.83100797	      0.92352203	     -0.19342757	    -18.53073011	     10.10262439	      1.04916277	    -10.18007286	     18.58771208	      0.83336443	      0.00000000	     12.36175814	     -2.89099496	     -7.86197602	      1.05512527	      7.30832553	      2.32816209	      0.00000000	    -24.75789853	      5.11397615	      5.21386002
      6.60000000	      7.10273844	     -5.82561603	     -0.97802632	      0.84194927	      0.92301667	     -0.19425821	    -18.78742046	      9.94099335	      1.00640851	    -11.40050449	     18.42865509	      1.26152832	      0.00000000	     12.11752674	     -2.95797457	     -7.08951180	      0.18078473	      6.94583893	      1.24162590	      0.00000000	    -24.82347331	      5.07096202	      5.38026293
      6.61000000	      7.24203841	     -5.84699203	     -1.22312722	      0.85311642	      0.92264436	     -0.19514911	    -18.96929867	      9.72432992	      0.96188533	    -12.75753562	     18.03866714	      1.61380795	      0.00000000	     11.80904688	     -2.97792372	     -6.35915221	     -0.72316915	      6.45068443	      0.35133275	      0.00000000	    -24.84106887	      4.99711512	      5.55686378
      6.62000000	      7.41290055	     -5.82198299	     -1.45502361	      0.86448563	      0.92247802	     -0.19614222	    -19.08726569	      9.43602264	      0.79524493	    -14.28720955	     17.49584746	      2.01833514	      0.00000000	     11.37101139	     -2.91788898	     -5.54211356	     -1.52583017	      5.63883559	     -0.65905892	      0.00000000	    -24.85644235	      4.87795428	      5.68058933
